PathFileType	4	(X/Y/Z)	C:/Users/beibeiliu/ov580/test_trc\sequence.36_training_dense_right.trc
DataRate	CameraRate	NumFrames	NumMarkers	Units	OrigDataRate	OrigDataStartFrame	OrigNumFrames
120	120	24	19	mm	120	32	255
Frame#	Time	ThumbCMC			ThumbMCP			ThumbIP			ThumbTip			IndexMCP			IndexPIP			IndexTip			MiddleMCP			MiddlePIP			MiddleTip			RingMCP			RingPIP			RingTip			PinkyMCP			PinkyPIP			PinkyTip			BackHand1			BackHand2			BackHand3	
		X0	Y0	Z0	X1	Y1	Z1	X2	Y2	Z2	X3	Y3	Z3	X4	Y4	Z4	X5	Y5	Z5	X6	Y6	Z6	X7	Y7	Z7	X8	Y8	Z8	X9	Y9	Z9	X10	Y10	Z10	X11	Y11	Z11	X12	Y12	Z12	X13	Y13	Z13	X14	Y14	Z14	X15	Y15	Z15	X16	Y16	Z16	X17	Y17	Z17	X18	Y18	Z18	
31	0.258333	204.61	-25.8592	-47.4673	196.837	-43.5007	-72.669	192.74	-51.7321	-89.9322	191.33	-62.4679	-110.547	224.764	-6.22675	-105.401	224.828	-9.54362	-133.47	227.65	-21.9466	-154.334	249.742	-5.0895	-109.742	256.15	-9.92146	-134.187	257.79	-24.3932	-160.454	265.279	-13.709	-100.896	271.786	-20.2483	-123.478	271.302	-30.688	-141.291	281.471	-25.8996	-82.212	287.51	-31.9014	-100.111	293.348	-39.9853	-118.374	253.551	-8.15165	-56.1663	247.283	-4.7682	-28.9962	229.132	-2.87742	-48.1271	
32	0.266667	203.669	-29.4312	-48.837	198.07	-47.8797	-76.0078	193.658	-56.6386	-95.8646	196.048	-67.2168	-114.308	226.327	-9.67091	-108.092	224.87	-14.3454	-138.343	227.317	-26.2401	-155.425	250.521	-9.64387	-109.253	255.811	-13.4458	-138.544	264.834	-29.1321	-160.281	268.074	-17.5095	-101.359	273.294	-23.8212	-125.194	277.657	-39.9029	-144.204	282.268	-28.1537	-84.1848	293.675	-37.446	-100.215	295.516	-49.68	-121.138	258.305	-9.93152	-56.8968	253.747	-9.97281	-33.3293	231.662	-5.4436	-54.3734	
33	0.275	207.641	-33.7045	-52.6732	199.793	-51.8523	-73.6169	196.979	-61.7671	-94.5368	197.847	-71.6871	-117.306	225.739	-12.5956	-114.822	228.767	-16.7074	-138.319	233.984	-31.3587	-157.796	255.959	-13.4111	-109.815	260.999	-15.7713	-139.205	266.141	-31.8107	-160.367	273.101	-20.6371	-105.513	278.861	-28.2701	-126.845	281.934	-44.6775	-141.59	286.674	-31.6718	-87.7672	295.525	-40.9222	-103.013	300.106	-56.1797	-122.081	258.49	-11.4232	-59.3664	252.186	-11.6855	-37.6341	228.075	-9.8708	-53.9707	
34	0.283333	211.168	-37.4996	-56.6086	202.526	-56.1086	-79.1309	203.556	-64.6687	-95.1649	201.704	-76.7007	-118.816	233.039	-17.1597	-114.1	230.788	-21.7091	-143.436	235.367	-35.9186	-159.324	254.31	-14.3084	-116.157	263.62	-19.0197	-139.486	270.788	-40.9306	-161.099	272.202	-22.7408	-105.146	280.576	-31.0811	-125.697	279.869	-51.9238	-145.043	287.876	-34.5363	-88.619	297.135	-45.6482	-104.384	297.225	-59.1198	-121.459	260.822	-17.4774	-58.8072	252.246	-16.0968	-35.5223	231.171	-13.2398	-58.2557	
35	0.291667	212.511	-41.3055	-54.2417	206.296	-60.3466	-81.6112	203.315	-70.5345	-98.5795	209.557	-80.049	-117.421	230.829	-19.4496	-118.085	237.279	-25.3029	-139.951	236.877	-41.8578	-159.635	258.788	-17.0932	-117.261	267.457	-24.0803	-141.802	275.594	-46.0851	-158.78	276.548	-26.1925	-103.351	280.444	-36.2059	-130.232	284.116	-58.6443	-143.645	290.472	-37.2282	-91.4638	296.272	-47.0479	-103.914	296.974	-65.7224	-119.748	258.891	-17.564	-61.2379	253.217	-18.1288	-34.2302	234.809	-15.4307	-57.4735	
36	0.3	214.542	-44.4995	-58.1938	210.052	-64.1155	-77.6315	207.934	-74.3842	-102.833	212.027	-85.3302	-118.685	236.886	-23.1736	-116.166	236.63	-29.0398	-141.553	243.134	-47.3735	-157.22	257.654	-21.2679	-117.341	268.865	-28.7823	-140.044	272.931	-54.0274	-159.588	276.309	-29.4643	-103.699	283.283	-42.136	-129.364	282.61	-63.9884	-140.863	292.137	-41.3759	-86.2011	300.571	-56.7403	-106.704	297.33	-68.3853	-118.314	260.876	-22.9712	-61.136	254.079	-19.9745	-39.6153	234.487	-19.3532	-55.0463	
37	0.308333	216.647	-49.2862	-53.2879	210.022	-68.8578	-77.0486	210.208	-79.5125	-102.406	216.97	-90.2597	-118.725	238.083	-28.6633	-113.9	242.297	-33.1203	-139.449	241.203	-54.3719	-157.938	262.37	-25.426	-115.184	273.574	-34.9837	-139.229	277.415	-61.7881	-154.396	278.932	-32.9481	-102.495	284.906	-47.8059	-128.364	282.282	-67.7338	-138.165	295.221	-47.2201	-87.1787	299.725	-62.8095	-105.163	292.964	-79.478	-117.302	263.919	-24.9109	-58.4827	259.465	-23.0409	-37.4984	237.334	-22.7746	-59.3904	
38	0.316667	216.145	-51.6158	-51.9238	212.194	-70.9801	-76.1954	213.473	-81.3203	-100.455	219.253	-92.8033	-114.968	239.612	-30.9096	-116.062	241.114	-38.1539	-140.557	244.829	-60.8512	-154.8	265.709	-29.3044	-111.597	271.154	-38.1571	-138.147	273.84	-66.8825	-153.088	279.02	-37.4116	-105.187	286.665	-49.6621	-124.016	281.397	-73.4031	-135.05	293.326	-49.8266	-85.2028	299.01	-65.0563	-100.081	289.324	-83.2004	-111.073	264.367	-29.8574	-57.2791	256.985	-26.7745	-36.6538	238.595	-24.2428	-56.4192	
39	0.325	212.996	-55.2657	-51.0168	215.062	-73.0237	-78.4797	219.019	-82.0672	-98.0909	223.281	-93.9905	-112.857	236.819	-34.2638	-108.031	239.477	-38.5917	-136.04	242.663	-62.1919	-152.129	262.457	-31.0114	-112.184	273.039	-43.7465	-137.189	275.372	-72.3062	-147.142	282.034	-41.1521	-102.503	284.1	-55.9974	-122.848	278.922	-81.2761	-129.515	290.34	-52.6289	-85.876	294.723	-72.1409	-100.213	281.279	-92.2973	-103.344	267.619	-32.1975	-54.6907	259.517	-31.3862	-29.709	237.174	-26.9383	-53.8939	
40	0.333333	214.634	-56.8644	-50.1933	215.717	-75.814	-72.825	217.611	-85.4573	-94.0066	226.485	-93.8489	-112.102	236.391	-34.1019	-105.351	242.799	-40.278	-131.877	245.499	-65.9597	-148.215	265.113	-33.4132	-105.645	270.067	-43.2661	-131.08	272.799	-73.7757	-143.223	280.971	-43.9814	-94.7894	282.529	-59.5344	-118.414	279.128	-84.3541	-122.601	293.236	-56.9865	-81.4285	291.607	-78.0652	-95.1294	276.457	-96.1635	-92.7618	264.872	-34.2386	-52.3909	258.8	-32.0453	-27.0393	239.66	-31.5835	-48.1915	
41	0.341667	215.819	-58.0313	-45.9476	212.881	-77.6411	-68.8138	219.682	-84.9631	-92.4008	227.849	-95.9095	-112.078	234.446	-34.1353	-103.282	240.678	-41.6364	-130.049	241.141	-63.8361	-143.801	262.341	-33.6222	-106.459	271.694	-47.0275	-128.997	271.455	-78.4062	-136.55	280.074	-46.038	-96.3373	279.275	-61.7813	-114.851	272.08	-91.6089	-112.141	290.874	-59.0474	-77.641	282.454	-81.691	-92.0619	269.533	-96.198	-83.2662	265.36	-34.4726	-47.0103	258.947	-36.3696	-26.8041	235.41	-32.2818	-44.9127	
42	0.35	215.686	-57.9408	-44.2416	212.734	-77.5049	-66.5248	216.729	-86.4896	-91.58	226.775	-96.7029	-111.191	237.775	-35.0037	-103.406	240.707	-42.4034	-125.82	240.436	-66.3711	-138.947	263.606	-36.0162	-103.719	269.329	-48.1682	-125.627	264.92	-80.4722	-132.535	273.821	-49.5806	-93.8548	274.534	-70.4907	-111.678	262.376	-91.7404	-105.64	288.419	-64.083	-77.0351	280.924	-85.698	-87.7279	259.439	-96.6894	-74.5822	264.224	-36.8051	-45.1588	259.571	-38.0662	-24.2192	236.161	-33.1908	-45.3102	
43	0.358333	210.949	-57.9652	-41.6315	211.47	-76.1589	-64.9585	214.547	-85.3237	-86.7361	223.975	-94.6706	-104.211	236.842	-35.5715	-95.9248	236.02	-45.3282	-126.969	234.794	-68.1145	-135.498	258.782	-39.2424	-97.2305	261.244	-52.5768	-125.326	255.854	-82.03	-127.617	272.432	-52.5577	-90.5164	266.824	-77.4048	-107.292	257.152	-96.4634	-94.2925	284.632	-69.5834	-77.3927	270.517	-88.6192	-84.35	252.589	-94.9432	-67.7831	262.869	-39.6572	-42.6407	258.203	-39.5229	-21.1477	238.338	-35.0893	-37.6244	
44	0.366667	213.746	-56.9284	-39.9239	208.411	-74.0692	-61.5698	211.791	-83.4229	-83.5174	221.884	-93.9	-102.471	234.535	-33.111	-97.335	233.707	-42.9049	-120.857	233.772	-71.3881	-129.169	256.565	-40.4687	-97.5804	259.972	-58.1373	-120.969	247.662	-86.6773	-118.96	269.978	-58.5511	-91.2328	259.757	-81.6409	-102.662	248.065	-96.4308	-85.6798	275.536	-71.7579	-74.3245	262.828	-92.8048	-78.3975	244.37	-90.9435	-63.7181	264.301	-40.4802	-43.0536	256.737	-44.7126	-14.4603	235.449	-34.8945	-33.9282	
45	0.375	210.441	-55.5736	-34.7423	204.066	-71.4738	-61.6083	206.52	-80.1164	-83.9865	219.193	-91.9604	-102.597	235.363	-33.9639	-87.9676	231.103	-43.5654	-115.851	225.172	-72.7974	-122.307	253.538	-41.0063	-92.6298	252.85	-56.8021	-116.608	240.278	-87.7466	-110.026	264.091	-59.1789	-83.2842	253.213	-83.1309	-96.8628	238.429	-95.5622	-78.5939	273.551	-77.6462	-72.1816	257.344	-91.4654	-76.5195	239.223	-95.4671	-55.8686	259.424	-44.3361	-36.9291	257.748	-46.9241	-8.63976	233.041	-33.7699	-32.2064	
46	0.383333	204.636	-52.9147	-30.7505	200.495	-67.7555	-56.2299	203.734	-77.7366	-82.0086	214.438	-88.0155	-94.1662	230.734	-32.7341	-85.1362	232.035	-45.0801	-110.693	221.777	-74.705	-113.912	252.277	-43.6072	-87.5687	247.09	-61.5951	-111.648	232.255	-87.2759	-100.749	260.281	-61.0322	-79.6305	246.095	-83.9182	-91.447	231.101	-92.8246	-70.4414	269.172	-81.4762	-69.0635	247.971	-96.9307	-68.2394	232.671	-90.2414	-52.6646	262.649	-48.9422	-35.2758	256.831	-48.5932	-8.73778	236.021	-35.5338	-26.0458	
47	0.391667	204.893	-50.9834	-21.2068	193.371	-64.0099	-51.994	196.118	-72.917	-74.2216	212.086	-84.3747	-89.293	228.52	-31.7687	-78.7364	230.235	-46.8421	-105.605	213.325	-69.4532	-107.752	251.243	-46.4204	-84.274	239.956	-66.2935	-105.444	220.133	-85.8259	-89.8453	256.752	-63.8966	-74.673	239.951	-87.6279	-84.2777	225.003	-91.1817	-63.9933	261.74	-81.7986	-63.5848	240.788	-92.534	-66.2808	225.562	-88.648	-47.6472	260.186	-49.7722	-26.5724	251.112	-50.0857	-0.150368	232.823	-35.7238	-17.1062	
48	0.4	199.487	-47.5957	-16.2233	187.603	-59.9401	-44.2154	192.274	-69.1464	-69.3137	201.087	-81.213	-83.2582	229.837	-31.3184	-77.4706	222.584	-40.7298	-98.768	209.897	-67.0033	-99.1634	246.514	-46.9027	-79.034	232.869	-63.2737	-98.713	212.787	-82.2831	-80.8885	249.789	-63.1753	-71.5583	234.283	-82.7833	-80.844	218.06	-89.6328	-53.4837	256.478	-81.83	-57.2232	235.755	-96.6652	-60.4387	220.382	-87.2355	-42.5805	255.606	-52.7294	-19.7259	251.042	-52.5577	3.29058	231.441	-34.9484	-11.9475	
49	0.408333	198.605	-44.9016	-10.2962	186.574	-55.2427	-41.1471	184.761	-63.7857	-59.9996	196.035	-76.7353	-78.5607	225.745	-30.0285	-66.4073	216.801	-43.9613	-91.9369	199.347	-65.8659	-87.2772	237.784	-42.2705	-68.9973	225.874	-65.214	-90.8208	206.665	-78.5777	-73.2332	245.829	-65.2503	-66.0944	224.935	-78.2007	-75.2738	209.411	-86.0096	-49.148	248.845	-77.9925	-51.9149	228.617	-93.3385	-55.9278	213.094	-86.3295	-38.5469	251.849	-52.4423	-15.9133	243.822	-53.4147	8.54381	229.914	-33.7787	-4.30612	
50	0.416667	190.99	-40.0659	-4.72229	177.495	-51.0081	-31.8211	178.866	-58.3113	-52.1917	188.222	-71.077	-73.9214	219.604	-24.0745	-61.0204	209.225	-37.3128	-84.5212	191.517	-58.7706	-80.2709	231.638	-40.1736	-67.2251	216.917	-55.943	-83.7692	200.705	-76.7418	-63.3377	239.707	-62.5586	-59.4441	218.797	-75.962	-68.6937	203.295	-83.6286	-42.784	241.31	-76.8409	-47.536	219.273	-85.0773	-53.2541	208.128	-86.2131	-30.692	245.024	-49.0295	-11.9542	240.536	-51.4813	14.7745	225.708	-34.3812	3.47114	
51	0.425	184.614	-36.7256	7.08371	175.904	-45.6271	-24.7392	175.238	-53.4662	-43.8455	182.118	-65.0008	-65.2905	216.03	-21.988	-49.6656	205.85	-32.6391	-73.615	182.053	-52.1687	-70.1743	227.037	-37.4301	-54.5462	210.77	-51.5065	-75.99	188.263	-67.7304	-54.6208	234.12	-60.0336	-50.947	207.319	-70.5261	-60.6701	195.48	-78.5156	-36.0823	234.185	-73.9032	-42.5206	215.416	-84.9599	-46.8738	198.997	-79.3943	-22.9346	240.574	-48.4275	-4.16138	237.342	-54.7314	23.5209	221.3	-29.8272	11.2566	
52	0.433333	182.194	-31.3883	14.9005	168.525	-40.1642	-14.8498	171.35	-47.434	-36.6733	173.184	-57.6272	-56.5272	211.146	-18.2418	-44.6624	195.949	-27.0813	-66.096	177.678	-50.9039	-58.3988	223.235	-33.7256	-49.5665	203.589	-44.8031	-66.9626	185.538	-63.983	-45.922	225.936	-52.6971	-45.6315	204.113	-64.8421	-53.6436	189.123	-72.5927	-29.5459	229.647	-68.5465	-33.923	207.574	-76.4876	-40.9982	193.111	-74.0519	-19.6902	237.581	-48.0518	5.47479	228.668	-51.0167	33.8248	218.201	-29.9354	19.1268	
53	0.441667	179.894	-27.7059	24.3533	163.913	-33.2734	-5.20657	164.149	-40.0188	-26.0561	170.267	-51.6184	-50.9381	208.787	-12.8779	-32.0478	198.003	-21.7741	-55.4783	176.797	-41.3749	-51.8296	217.756	-26.9532	-38.7817	197.463	-43.4463	-58.5454	180.667	-58.6024	-38.1217	223.531	-49.8325	-38.8458	201.417	-59.9704	-47.6664	182.737	-62.9033	-23.6004	227.04	-66.5805	-26.1574	205.662	-74.6485	-35.0485	187.782	-68.1447	-16.6037	233.532	-45.9428	15.935	226.697	-49.0911	40.4862	215.257	-23.6088	28.2732	
54	0.45	179.248	-25.9308	32.8248	164.284	-30.1804	5.64233	162.859	-33.7757	-20.311	164.362	-43.3037	-38.6669	206.143	-8.09872	-27.5296	189.524	-16.8059	-48.5917	170.774	-33.9955	-43.9278	214.337	-22.4989	-33.0397	192.401	-36.7689	-49.8787	174.463	-48.4956	-31.2682	218.175	-41.5728	-30.9827	198.688	-54.3314	-41.4295	179.961	-59.1907	-21.7564	222.112	-60.1192	-22.8392	199.83	-65.6133	-28.6846	183.525	-64.5252	-6.11393	228.388	-39.9698	19.9991	224.318	-47.9336	47.5037	213.615	-19.4744	34.0417	
